<svg width="50" height="50" viewBox="0 0 50 50" fill="none" xmlns="http://www.w3.org/2000/svg">
<g clip-path="url(#clip0_328_424)">
<path d="M8.3333 41.6666C7.18746 41.6666 6.20621 41.2583 5.38955 40.4416C4.57288 39.6249 4.16524 38.6444 4.16663 37.4999V12.4999C4.16663 11.3541 4.57496 10.3728 5.39163 9.55617C6.2083 8.73951 7.18885 8.33187 8.3333 8.33326H41.6666C42.8125 8.33326 43.7937 8.74159 44.6104 9.55825C45.427 10.3749 45.8347 11.3555 45.8333 12.4999V24.9999H8.3333V37.4999H27.0833C27.6736 37.4999 28.1687 37.6999 28.5687 38.0999C28.9687 38.4999 29.168 38.9944 29.1666 39.5833C29.1666 40.1735 28.9666 40.6687 28.5666 41.0687C28.1666 41.4687 27.6722 41.668 27.0833 41.6666H8.3333ZM8.3333 16.6666H41.6666V12.4999H8.3333V16.6666ZM39.5833 39.5833H35.4166C34.8264 39.5833 34.3312 39.3833 33.9312 38.9833C33.5312 38.5833 33.3319 38.0888 33.3333 37.4999C33.3333 36.9096 33.5333 36.4145 33.9333 36.0145C34.3333 35.6145 34.8277 35.4152 35.4166 35.4166H39.5833V31.2499C39.5833 30.6596 39.7833 30.1645 40.1833 29.7645C40.5833 29.3645 41.0777 29.1652 41.6666 29.1666C42.2569 29.1666 42.752 29.3666 43.152 29.7666C43.552 30.1666 43.7514 30.661 43.75 31.2499V35.4166H47.9166C48.5069 35.4166 49.002 35.6166 49.402 36.0166C49.802 36.4166 50.0014 36.911 50 37.4999C50 38.0902 49.8 38.5853 49.4 38.9853C49 39.3853 48.5055 39.5846 47.9166 39.5833H43.75V43.7499C43.75 44.3402 43.55 44.8353 43.15 45.2353C42.75 45.6353 42.2555 45.8346 41.6666 45.8333C41.0764 45.8333 40.5812 45.6333 40.1812 45.2333C39.7812 44.8333 39.5819 44.3388 39.5833 43.7499V39.5833Z" fill="black"/>
</g>
<defs>
<clipPath id="clip0_328_424">
<rect width="50" height="50" fill="white"/>
</clipPath>
</defs>
</svg>
