<svg width="113" height="113" viewBox="0 0 113 113" fill="none" xmlns="http://www.w3.org/2000/svg">
<path d="M56.5 0.25C25.45 0.25 0.25 25.45 0.25 56.5C0.25 87.55 25.45 112.75 56.5 112.75C87.55 112.75 112.75 87.55 112.75 56.5C112.75 25.45 87.55 0.25 56.5 0.25ZM56.5 22.75C67.3562 22.75 76.1875 31.5813 76.1875 42.4375C76.1875 53.2937 67.3562 62.125 56.5 62.125C45.6438 62.125 36.8125 53.2937 36.8125 42.4375C36.8125 31.5813 45.6438 22.75 56.5 22.75ZM56.5 101.5C45.0813 101.5 31.5813 96.8875 21.9625 85.3C31.8153 77.5697 43.9766 73.3683 56.5 73.3683C69.0234 73.3683 81.1847 77.5697 91.0375 85.3C81.4187 96.8875 67.9187 101.5 56.5 101.5Z" fill="#DDDDDD"/>
</svg>
