<svg width="22" height="17" viewBox="0 0 22 17" fill="none" xmlns="http://www.w3.org/2000/svg">
<path d="M7.73333 16.6301C7.55556 16.6301 7.38889 16.5995 7.23333 16.5383C7.07778 16.477 6.93333 16.3739 6.8 16.2291L1.06667 9.95825C0.822223 9.69089 0.705334 9.34429 0.716001 8.91846C0.726668 8.49263 0.854667 8.14651 1.1 7.88013C1.34444 7.61277 1.65556 7.47909 2.03333 7.47909C2.41111 7.47909 2.72222 7.61277 2.96667 7.88013L7.73333 13.0937L19.0333 0.734294C19.2778 0.466933 19.5947 0.333252 19.984 0.333252C20.3733 0.333252 20.6898 0.466933 20.9333 0.734294C21.1778 1.00165 21.3 1.34825 21.3 1.77409C21.3 2.19992 21.1778 2.54603 20.9333 2.81242L8.66667 16.2291C8.53333 16.3749 8.38889 16.4785 8.23333 16.5397C8.07778 16.601 7.91111 16.6311 7.73333 16.6301Z" fill="#44B5A7"/>
</svg>
