<svg width="30" height="19" viewBox="0 0 30 19" fill="none" xmlns="http://www.w3.org/2000/svg">
<path d="M10.8558 2.0022H18.9019V16.7197H10.8558V2.0022Z" fill="#FF5F00"/>
<path d="M11.3667 9.36094C11.3667 6.37068 12.746 3.71836 14.866 2.00215C13.308 0.754049 11.3413 0 9.19564 0C4.11238 0 0 4.18636 0 9.36094C0 14.5354 4.11238 18.7219 9.19553 18.7219C11.3411 18.7219 13.3079 17.9678 14.866 16.7196C12.746 15.0295 11.3667 12.3512 11.3667 9.36094Z" fill="#EB001B"/>
<path d="M29.7577 9.36094C29.7577 14.5354 25.6453 18.7219 20.5622 18.7219C18.4166 18.7219 16.4498 17.9678 14.8917 16.7196C17.0373 15.0035 18.3911 12.3512 18.3911 9.36094C18.3911 6.37068 17.0117 3.71836 14.8917 2.00215C16.4497 0.754049 18.4166 0 20.5622 0C25.6453 0 29.7577 4.21242 29.7577 9.36094Z" fill="#F79E1B"/>
</svg>
