<svg width="31" height="28" viewBox="0 0 31 28" fill="none" xmlns="http://www.w3.org/2000/svg">
<path fill-rule="evenodd" clip-rule="evenodd" d="M23.9747 22.8084V22.8061L23.9971 22.7565L27.7381 5.33041V5.27509C27.7381 4.84059 27.5634 4.46141 27.1867 4.23436C26.8561 4.03497 26.4757 4.02114 26.2087 4.03958C25.9603 4.06035 25.7151 4.10674 25.4778 4.17789C25.3766 4.20803 25.2767 4.24187 25.1784 4.27931L25.1622 4.28507L4.30564 11.8444L4.2994 11.8468C4.23599 11.8668 4.17393 11.8902 4.11354 11.9171C3.96521 11.9786 3.82289 12.0519 3.68817 12.136C3.41998 12.3066 2.9098 12.7077 2.99587 13.3439C3.06697 13.8717 3.4599 14.206 3.7256 14.38C3.88242 14.4815 4.05104 14.5666 4.2283 14.6335L4.26822 14.6497L4.28069 14.6531L4.28942 14.6566L7.93932 15.7918C7.92684 16.0027 7.94929 16.2183 8.01042 16.4315L9.83786 22.8383C9.93769 23.1876 10.1534 23.4991 10.4547 23.7293C10.756 23.9594 11.1278 24.0966 11.5178 24.1215C11.9078 24.1465 12.2965 24.0579 12.6293 23.8682C12.962 23.6786 13.2221 23.3974 13.373 23.0642L16.227 20.2452L21.1281 23.7166L21.1979 23.7442C21.6433 23.924 22.0586 23.9805 22.4391 23.9332C22.8196 23.8848 23.1214 23.7373 23.3485 23.5702C23.611 23.3735 23.8203 23.1229 23.9597 22.8383L23.9697 22.8187L23.9734 22.8118L23.9747 22.8084ZM9.81915 15.9912C9.79891 15.9201 9.80372 15.8449 9.83288 15.7765C9.86204 15.7081 9.91403 15.6501 9.98131 15.6109L22.3568 8.35001C22.3568 8.35001 23.0853 7.94086 23.0591 8.35001C23.0591 8.35001 23.1888 8.42147 22.7984 8.75685C22.4291 9.0761 13.978 16.6147 13.1223 17.3777C13.0747 17.4204 13.0414 17.4748 13.0262 17.5344L11.6466 22.3981L9.81915 15.9901V15.9912Z" fill="black"/>
</svg>
