<svg width="24" height="18" viewBox="0 0 24 18" fill="none" xmlns="http://www.w3.org/2000/svg">
<path d="M4.41665 0.5H23.9166V13.5H4.41665V0.5ZM14.1666 3.75C15.0286 3.75 15.8553 4.09241 16.4647 4.7019C17.0742 5.3114 17.4166 6.13805 17.4166 7C17.4166 7.86195 17.0742 8.6886 16.4647 9.2981C15.8553 9.90759 15.0286 10.25 14.1666 10.25C13.3047 10.25 12.478 9.90759 11.8685 9.2981C11.2591 8.6886 10.9166 7.86195 10.9166 7C10.9166 6.13805 11.2591 5.3114 11.8685 4.7019C12.478 4.09241 13.3047 3.75 14.1666 3.75ZM8.74998 2.66667C8.74998 3.2413 8.52171 3.7924 8.11538 4.19873C7.70905 4.60506 7.15795 4.83333 6.58331 4.83333V9.16667C7.15795 9.16667 7.70905 9.39494 8.11538 9.80127C8.52171 10.2076 8.74998 10.7587 8.74998 11.3333H19.5833C19.5833 10.7587 19.8116 10.2076 20.2179 9.80127C20.6242 9.39494 21.1753 9.16667 21.75 9.16667V4.83333C21.1753 4.83333 20.6242 4.60506 20.2179 4.19873C19.8116 3.7924 19.5833 3.2413 19.5833 2.66667H8.74998ZM0.083313 4.83333H2.24998V15.6667H19.5833V17.8333H0.083313V4.83333Z" fill="#3CB06C"/>
</svg>
