<svg width="40" height="40" viewBox="0 0 40 40" fill="none" xmlns="http://www.w3.org/2000/svg">
<g clip-path="url(#clip0_293_1407)">
<path d="M37.7778 20C37.7778 16.4838 36.7352 13.0467 34.7817 10.1231C32.8283 7.19961 30.0518 4.92099 26.8033 3.57543C23.5549 2.22987 19.9803 1.87781 16.5318 2.56377C13.0832 3.24973 9.91553 4.9429 7.42926 7.42917C4.943 9.91543 3.24983 13.0831 2.56387 16.5317C1.87791 19.9802 2.22997 23.5547 3.57553 26.8032C4.92108 30.0517 7.19971 32.8282 10.1232 34.7816C13.0468 36.7351 16.4839 37.7777 20.0001 37.7777C24.715 37.7777 29.2369 35.9047 32.5708 32.5707C35.9048 29.2368 37.7778 24.7149 37.7778 20ZM4.4445 20C4.4445 16.9234 5.35681 13.9158 7.06608 11.3577C8.77535 8.79965 11.2048 6.80586 14.0472 5.62849C16.8896 4.45113 20.0173 4.14308 23.0348 4.74329C26.0523 5.34351 28.824 6.82503 30.9995 9.00051C33.175 11.176 34.6565 13.9477 35.2567 16.9652C35.8569 19.9827 35.5489 23.1104 34.3715 25.9528C33.1941 28.7952 31.2004 31.2247 28.6423 32.9339C26.0842 34.6432 23.0767 35.5555 20.0001 35.5555C15.8745 35.5555 11.9178 33.9166 9.00061 30.9994C6.08338 28.0822 4.4445 24.1255 4.4445 20Z" fill="black"/>
<path d="M30.8223 20.0891L22.3667 11.6335C22.2671 11.5172 22.1445 11.4227 22.0067 11.356C21.8688 11.2893 21.7187 11.2519 21.5657 11.2459C21.4126 11.24 21.26 11.2658 21.1175 11.3217C20.9749 11.3775 20.8454 11.4623 20.7371 11.5706C20.6288 11.6788 20.5441 11.8083 20.4882 11.9509C20.4324 12.0935 20.4066 12.2461 20.4125 12.3991C20.4184 12.5521 20.4559 12.7023 20.5226 12.8401C20.5893 12.978 20.6837 13.1006 20.8 13.2002L26.4667 18.8891L9.80004 18.8891C9.50536 18.8891 9.22275 19.0061 9.01437 19.2145C8.806 19.4229 8.68893 19.7055 8.68893 20.0002C8.68893 20.2948 8.806 20.5775 9.01437 20.7858C9.22275 20.9942 9.50536 21.1113 9.80004 21.1113L26.6667 21.1113L20.8 26.9779C20.6837 27.0776 20.5893 27.2001 20.5226 27.338C20.4559 27.4758 20.4184 27.626 20.4125 27.779C20.4066 27.932 20.4324 28.0846 20.4882 28.2272C20.5441 28.3698 20.6288 28.4993 20.7371 28.6076C20.8454 28.7158 20.9749 28.8006 21.1175 28.8564C21.26 28.9123 21.4126 28.9381 21.5657 28.9322C21.7187 28.9263 21.8688 28.8888 22.0067 28.8221C22.1445 28.7554 22.2671 28.6609 22.3667 28.5446L30.8223 20.0891Z" fill="black"/>
</g>
<defs>
<clipPath id="clip0_293_1407">
<rect width="40" height="40" fill="white" transform="translate(40) rotate(90)"/>
</clipPath>
</defs>
</svg>
