<svg width="45" height="45" viewBox="0 0 45 45" fill="none" xmlns="http://www.w3.org/2000/svg">
<circle cx="22.5" cy="22.5" r="22.5" fill="#3CB06C"/>
<path d="M18.9271 31.6304C18.7327 31.6304 18.5504 31.5997 18.3802 31.5385C18.2101 31.4772 18.0521 31.3742 17.9063 31.2293L11.6354 24.9585C11.3681 24.6911 11.2402 24.3445 11.2519 23.9187C11.2636 23.4929 11.4036 23.1468 11.6719 22.8804C11.9393 22.613 12.2795 22.4793 12.6927 22.4793C13.1059 22.4793 13.4462 22.613 13.7136 22.8804L18.9271 28.0939L31.2865 15.7345C31.5538 15.4672 31.9004 15.3335 32.3263 15.3335C32.7521 15.3335 33.0982 15.4672 33.3646 15.7345C33.632 16.0019 33.7656 16.3485 33.7656 16.7743C33.7656 17.2002 33.632 17.5463 33.3646 17.8127L19.9479 31.2293C19.8021 31.3752 19.6441 31.4787 19.474 31.54C19.3038 31.6012 19.1215 31.6313 18.9271 31.6304Z" fill="white"/>
</svg>
