<svg width="30" height="28" viewBox="0 0 30 28" fill="none" xmlns="http://www.w3.org/2000/svg">
<g clip-path="url(#clip0_192_9)">
<path fill-rule="evenodd" clip-rule="evenodd" d="M28.4037 7.13122C28.6118 6.52183 28.4037 6.07883 27.4828 6.07883H24.4206C23.6482 6.07883 23.2915 6.46672 23.0833 6.88163C23.0833 6.88163 21.5081 10.4256 19.3084 12.7233C18.595 13.3878 18.2682 13.6093 17.8817 13.6093C17.6735 13.6093 17.4057 13.3878 17.4057 12.7789V7.10259C17.4057 6.38299 17.1683 6.05074 16.514 6.05074H11.6983C11.2223 6.05074 10.9253 6.38299 10.9253 6.71524C10.9253 7.40729 12.0251 7.57368 12.1438 9.51154V13.7222C12.1438 14.6357 11.9684 14.8027 11.579 14.8027C10.5388 14.8027 8.01219 11.2311 6.49659 7.16148C6.2019 6.35543 5.90252 6.05074 5.12952 6.05074H2.03811C1.14641 6.05074 0.997894 6.43809 0.997894 6.85354C0.997894 7.60123 2.03811 11.3662 5.84288 16.3494C8.36945 19.7529 11.9661 21.5822 15.206 21.5822C17.1683 21.5822 17.4057 21.1668 17.4057 20.4747V17.8999C17.4057 17.0695 17.584 16.9312 18.2085 16.9312C18.6541 16.9312 19.4569 17.1522 21.2701 18.7859C23.3505 20.7238 23.7072 21.6098 24.8667 21.6098H27.9283C28.82 21.6098 29.2363 21.1943 28.9983 20.3915C28.7311 19.5887 27.7201 18.4261 26.4121 17.042C25.6988 16.2673 24.6287 15.4088 24.3019 14.9934C23.8563 14.4396 23.975 14.2181 24.3019 13.72C24.2721 13.72 28.0178 8.79193 28.4037 7.12906" fill="black"/>
</g>
<defs>
<clipPath id="clip0_192_9">
<rect width="29.9376" height="27.6605" fill="white" transform="translate(0.0623474)"/>
</clipPath>
</defs>
</svg>
